<svg xmlns="http://www.w3.org/2000/svg" height="40" viewBox="0 -960 960 960" width="40"><path d="M520-120v-80h80v80h-80Zm-80-80v-200h80v200h-80Zm320-120v-160h80v160h-80Zm-80-160v-80h80v80h-80Zm-480 80v-80h80v80h-80Zm-80-80v-80h80v80h-80Zm360-280v-80h80v80h-80ZM173.333-653.333h133.334v-133.334H173.333v133.334ZM120-600v-240h240v240H120Zm53.333 426.667h133.334v-133.334H173.333v133.334ZM120-120v-240h240v240H120Zm533.333-533.333h133.334v-133.334H653.333v133.334ZM600-600v-240h240v240H600Zm80 480v-120h-80v-80h160v120h80v80H680ZM520-400v-80h160v80H520Zm-160 0v-80h-80v-80h240v80h-80v80h-80Zm40-200v-160h80v80h80v80H400Zm-190-90v-60h60v60h-60Zm0 480v-60h60v60h-60Zm480-480v-60h60v60h-60Z"/></svg>